<svg width="256" height="256" viewBox="0 0 256 256" fill="none" xmlns="http://www.w3.org/2000/svg">
  <defs>
    <linearGradient id="bg" x1="32" y1="24" x2="228" y2="232" gradientUnits="userSpaceOnUse">
      <stop stop-color="#22D3EE"/>
      <stop offset="0.45" stop-color="#3B82F6"/>
      <stop offset="1" stop-color="#8B5CF6"/>
    </linearGradient>
    <linearGradient id="book" x1="70" y1="72" x2="186" y2="184" gradientUnits="userSpaceOnUse">
      <stop stop-color="#F8FAFC" stop-opacity="0.98"/>
      <stop offset="1" stop-color="#E2E8F0" stop-opacity="0.9"/>
    </linearGradient>
  </defs>
  <rect x="16" y="16" width="224" height="224" rx="56" fill="url(#bg)"/>
  <circle cx="191" cy="66" r="24" fill="#FDE68A" fill-opacity="0.9"/>
  <path d="M72 74C72 65.1634 79.1634 58 88 58H128C143.464 58 156 70.536 156 86V184H92C80.9543 184 72 175.046 72 164V74Z" fill="url(#book)"/>
  <path d="M184 74C184 65.1634 176.837 58 168 58H128C112.536 58 100 70.536 100 86V184H164C175.046 184 184 175.046 184 164V74Z" fill="url(#book)" fill-opacity="0.9"/>
  <path d="M128 80V184" stroke="#C7D2FE" stroke-width="6" stroke-linecap="round"/>
  <path d="M86 92H119" stroke="#93C5FD" stroke-width="6" stroke-linecap="round"/>
  <path d="M86 112H119" stroke="#93C5FD" stroke-width="6" stroke-linecap="round"/>
  <path d="M137 92H170" stroke="#A7F3D0" stroke-width="6" stroke-linecap="round"/>
  <path d="M137 112H170" stroke="#A7F3D0" stroke-width="6" stroke-linecap="round"/>
  <path d="M86 150L114 126L136 144L170 110" stroke="#0F172A" stroke-width="10" stroke-linecap="round" stroke-linejoin="round"/>
</svg>
